<svg xmlns="http://www.w3.org/2000/svg" id="Layer_1" width="150" height="40" data-name="Layer 1" viewBox="0 0 887.38 109.91"><defs><style>.cls-1{fill:#010101}</style></defs><path d="M58.18 2.5a90.42 90.42 0 0 1 16.1 1.32 38.39 38.39 0 0 1 12.47 4.34 21.56 21.56 0 0 1 8 8 24.61 24.61 0 0 1 2.85 12.35 20.5 20.5 0 0 1-4.19 13.26q-4.25 5.28-12.55 8.67 11.43 2.79 17.05 9.78a26 26 0 0 1 5.63 16.83 25.31 25.31 0 0 1-3.64 13.72 28.57 28.57 0 0 1-9.78 9.48 47.11 47.11 0 0 1-14 5.45 74.23 74.23 0 0 1-16.19 1.76H.04v-105Zm-3.47 42.49q7.28 0 12-2.94t4.68-9.56a10 10 0 0 0-5.72-9.7 19.26 19.26 0 0 0-6-1.84 46.89 46.89 0 0 0-7-.52H27.19v24.56Zm1.56 44.55a42.55 42.55 0 0 0 7.62-.66 20.63 20.63 0 0 0 6.41-2.21 12 12 0 0 0 4.41-4.19 12.58 12.58 0 0 0 1.65-6.76q0-8.08-5.37-11.54t-14.2-3.41h-29.6v28.82ZM214.34 2.5v19.4h-65.3v22.5h59.91v17.94h-59.91v25.73h66.66v19.41h-93.81v-105ZM220.75 2.5h30.47l28.91 41.46L308.87 2.5h30.3l-45.88 64.69v40.29h-27.18V66.6ZM348.35 33.6a51.27 51.27 0 0 1 11.94-17.58 55.17 55.17 0 0 1 19.13-11.76 78.93 78.93 0 0 1 51.16 0 55.38 55.38 0 0 1 19.05 11.76 51.13 51.13 0 0 1 11.94 17.58 56.48 56.48 0 0 1 4.16 21.83 54.64 54.64 0 0 1-4.16 21.39 50 50 0 0 1-11.94 17.28 55.7 55.7 0 0 1-19.05 11.54 80.18 80.18 0 0 1-51.16 0 55.5 55.5 0 0 1-19.13-11.54 50.09 50.09 0 0 1-11.94-17.28 54.64 54.64 0 0 1-4.16-21.39 56.48 56.48 0 0 1 4.16-21.83Zm24.84 34.69a32.22 32.22 0 0 0 5.8 11.25 28.48 28.48 0 0 0 10.39 8 41.83 41.83 0 0 0 31.16 0 28.56 28.56 0 0 0 10.39-8 32.22 32.22 0 0 0 5.8-11.25 45.83 45.83 0 0 0 1.82-12.86 49.27 49.27 0 0 0-1.82-13.38 32.77 32.77 0 0 0-5.8-11.54 28.29 28.29 0 0 0-10.39-8.09 41.83 41.83 0 0 0-31.16 0 28.21 28.21 0 0 0-10.34 8.09 32.77 32.77 0 0 0-5.8 11.54 49.27 49.27 0 0 0-1.82 13.38 45.83 45.83 0 0 0 1.77 12.86ZM575.15 99.47q-14 10.37-38.78 10.36-25.11 0-38.87-10.29t-13.77-31.77V2.5h27.19v65.27a40.32 40.32 0 0 0 .86 8.38 15.79 15.79 0 0 0 3.64 7.28 19.86 19.86 0 0 0 7.7 5.15q4.93 2 13.25 2 14.53 0 20.08-5.51t5.59-17.3V2.5h27.18v65.27q-.05 21.33-14.07 31.7ZM634.53 2.5l51.6 70.43h.34V2.5h25.45v105h-27.18l-51.42-70.28h-.35v70.28h-25.45V2.5ZM809.04 106.67a52.57 52.57 0 0 1-17.84 3.16 73.17 73.17 0 0 1-25.54-4.19 55.5 55.5 0 0 1-19.13-11.54 50.09 50.09 0 0 1-11.94-17.28 54.82 54.82 0 0 1-4.16-21.39 56.66 56.66 0 0 1 4.16-21.83 51.27 51.27 0 0 1 11.94-17.58 55.17 55.17 0 0 1 19.13-11.76A72.24 72.24 0 0 1 791.2 0a69.78 69.78 0 0 1 18.44 2.42 56.3 56.3 0 0 1 16.1 7.13 41.7 41.7 0 0 1 11.86 11.62 35.14 35.14 0 0 1 5.72 15.88h-26a21.9 21.9 0 0 0-9.28-13.23q-6.93-4.41-16.8-4.41a36.38 36.38 0 0 0-15.58 3 28.29 28.29 0 0 0-10.39 8.09 32.94 32.94 0 0 0-5.8 11.54 49.26 49.26 0 0 0-1.81 13.38 45.82 45.82 0 0 0 1.81 12.86 32.39 32.39 0 0 0 5.8 11.25 28.56 28.56 0 0 0 10.39 8 36.38 36.38 0 0 0 15.58 3q13.51 0 20.86-5.81t8.58-16.83h-27.41V50.77h51.94v56.76H827.9l-2.77-11.91a40.35 40.35 0 0 1-16.09 11.05Z" class="cls-1"/><path d="M944.66 177.89a13.57 13.57 0 1 0 13.56 13.56 13.57 13.57 0 0 0-13.56-13.56Zm0 24.91A11.35 11.35 0 1 1 956 191.45a11.35 11.35 0 0 1-11.34 11.35Z" style="stroke-miterlimit:10;stroke:#010101;strokeWidth:.25px;fill:#010101" transform="translate(-70.96 -95.23)"/><path d="M946.77 192.34a5 5 0 0 0 2.74-1.1 3.59 3.59 0 0 0 1.11-2.92 3.75 3.75 0 0 0-1.36-3.24 6.77 6.77 0 0 0-4-1h-5.58v14.73h2.42v-6.3h2.27l3.81 6.3h2.74Zm-2-1.88h-2.7v-4.31h4.04a3.32 3.32 0 0 1 1 .27 2 2 0 0 1 .76.6 1.74 1.74 0 0 1 .31 1.07 2.36 2.36 0 0 1-.29 1.27 2.07 2.07 0 0 1-.75.69 2.57 2.57 0 0 1-1.08.3c-.4.09-.83.11-1.28.11Z" style="strokeLinecap:round;strokeLinejoin:round;stroke:#010101;strokeWidth:.25px;fill:#010101" transform="translate(-70.96 -95.23)"/></svg>